<svg width="169" height="162" viewBox="0 0 169 162" fill="none" xmlns="http://www.w3.org/2000/svg">
<g filter="url(#filter0_d_149_38133)">
<rect x="52.5588" y="131.574" width="10" height="10" transform="rotate(-9 52.5588 131.574)" fill="#FFC500"/>
<rect x="62.4357" y="130.01" width="10" height="10" transform="rotate(-9 62.4357 130.01)" fill="#FFC500"/>
<rect x="72.3126" y="128.445" width="10" height="10" transform="rotate(-9 72.3126 128.445)" fill="#FFC500"/>
<rect x="82.1893" y="126.881" width="10" height="10" transform="rotate(-9 82.1893 126.881)" fill="#FFC500"/>
<rect x="92.0663" y="125.317" width="10" height="10" transform="rotate(-9 92.0663 125.317)" fill="#FFC500"/>
<rect x="101.943" y="123.752" width="10" height="10" transform="rotate(-9 101.943 123.752)" fill="#FFC500"/>
<rect x="111.82" y="122.188" width="10" height="10" transform="rotate(-9 111.82 122.188)" fill="#FFC500"/>
<rect x="121.697" y="120.624" width="10" height="10" transform="rotate(-9 121.697 120.624)" fill="white"/>
<rect x="60.8713" y="120.133" width="10" height="10" transform="rotate(-9 60.8713 120.133)" fill="#FFC500"/>
<rect x="70.7483" y="118.569" width="10" height="10" transform="rotate(-9 70.7483 118.569)" fill="#FFC500"/>
<rect x="80.625" y="117.004" width="10" height="10" transform="rotate(-9 80.625 117.004)" fill="#FFC500"/>
<rect x="90.502" y="115.44" width="10" height="10" transform="rotate(-9 90.502 115.44)" fill="#FFC500"/>
<rect x="100.379" y="113.876" width="10" height="10" transform="rotate(-9 100.379 113.876)" fill="#FFC500"/>
<rect x="110.256" y="112.311" width="10" height="10" transform="rotate(-9 110.256 112.311)" fill="white"/>
<rect x="79.0607" y="107.127" width="10" height="10" transform="rotate(-9 79.0607 107.127)" fill="#FFC500"/>
<rect x="88.938" y="105.563" width="10" height="10" transform="rotate(-9 88.938 105.563)" fill="#FFC500"/>
<rect x="67.6196" y="98.8149" width="10" height="10" transform="rotate(-9 67.6196 98.8149)" fill="#FFC500"/>
<rect x="77.4963" y="97.2505" width="10" height="10" transform="rotate(-9 77.4963 97.2505)" fill="#FFC500"/>
<rect x="87.3733" y="95.6861" width="10" height="10" transform="rotate(-9 87.3733 95.6861)" fill="#FFC500"/>
<rect x="97.2504" y="94.1219" width="10" height="10" transform="rotate(-9 97.2504 94.1219)" fill="#FFC500"/>
<rect x="46.3016" y="92.0665" width="10" height="10" transform="rotate(-9 46.3016 92.0665)" fill="#FFC500"/>
<rect x="56.1782" y="90.5022" width="10" height="10" transform="rotate(-9 56.1782 90.5022)" fill="#FFC500"/>
<rect x="66.0553" y="88.9379" width="10" height="10" transform="rotate(-9 66.0553 88.9379)" fill="#FFC500"/>
<rect x="75.932" y="87.3735" width="10" height="10" transform="rotate(-9 75.932 87.3735)" fill="#FFC500"/>
<rect x="85.8093" y="85.8092" width="10" height="10" transform="rotate(-9 85.8093 85.8092)" fill="#FFC500"/>
<rect x="95.686" y="84.2449" width="10" height="10" transform="rotate(-9 95.686 84.2449)" fill="#FFC500"/>
<rect x="105.563" y="82.6805" width="10" height="10" transform="rotate(-9 105.563 82.6805)" fill="#FFC500"/>
<rect x="115.44" y="81.1161" width="10" height="10" transform="rotate(-9 115.44 81.1161)" fill="#FFC500"/>
<rect x="34.8602" y="83.7538" width="10" height="10" transform="rotate(-9 34.8602 83.7538)" fill="#FFC500"/>
<rect x="44.7372" y="82.1895" width="10" height="10" transform="rotate(-9 44.7372 82.1895)" fill="#FFC500"/>
<rect x="55.3961" y="85.5635" width="5" height="5" transform="rotate(-9 55.3961 85.5635)" fill="#FFC500"/>
<rect x="60.3345" y="84.7814" width="5" height="5" transform="rotate(-9 60.3345 84.7814)" fill="#FFC500"/>
<g filter="url(#filter1_d_149_38133)">
<path d="M59.5522 79.843L64.4907 79.0608L65.2729 83.9993L60.3344 84.7815L59.5522 79.843Z" fill="white"/>
</g>
<rect x="54.614" y="80.6252" width="5" height="5" transform="rotate(-9 54.614 80.6252)" fill="#FFC500"/>
<rect x="70.2118" y="83.217" width="5" height="5" transform="rotate(-9 70.2118 83.217)" fill="#FFC500"/>
<g filter="url(#filter2_d_149_38133)">
<path d="M69.4293 78.2787L74.3678 77.4965L75.1499 82.435L70.2115 83.2171L69.4293 78.2787Z" fill="white"/>
</g>
<rect x="64.491" y="79.0609" width="5" height="5" transform="rotate(-9 64.491 79.0609)" fill="white"/>
<g filter="url(#filter3_d_149_38133)">
<path d="M65.2732 83.9992L70.2116 83.217L70.9938 88.1555L66.0554 88.9376L65.2732 83.9992Z" fill="white"/>
</g>
<rect x="74.3677" y="77.4965" width="10" height="10" transform="rotate(-9 74.3677 77.4965)" fill="#FFC500"/>
<rect x="84.2446" y="75.9321" width="10" height="10" transform="rotate(-9 84.2446 75.9321)" fill="#FFC500"/>
<rect x="94.9042" y="79.3062" width="5" height="5" transform="rotate(-9 94.9042 79.3062)" fill="#FFC500"/>
<rect x="99.8425" y="78.524" width="5" height="5" transform="rotate(-9 99.8425 78.524)" fill="#FFC500"/>
<rect x="99.0601" y="73.5857" width="5" height="5" transform="rotate(-9 99.0601 73.5857)" fill="#FFC500"/>
<g filter="url(#filter4_d_149_38133)">
<path d="M94.1217 74.3679L99.0601 73.5857L99.8423 78.5241L94.9039 79.3063L94.1217 74.3679Z" fill="white"/>
</g>
<rect x="104.781" y="77.7419" width="5" height="5" transform="rotate(-9 104.781 77.7419)" fill="#FFC500"/>
<rect x="109.719" y="76.9597" width="5" height="5" transform="rotate(-9 109.719 76.9597)" fill="#FFC500"/>
<rect x="108.937" y="72.0214" width="5" height="5" transform="rotate(-9 108.937 72.0214)" fill="#FFC500"/>
<g filter="url(#filter5_d_149_38133)">
<path d="M103.998 72.8035L108.937 72.0214L109.719 76.9598L104.781 77.742L103.998 72.8035Z" fill="white"/>
</g>
<rect x="113.875" y="71.2392" width="10" height="10" transform="rotate(-9 113.875 71.2392)" fill="#FFC500"/>
<rect x="123.752" y="69.6747" width="10" height="10" transform="rotate(-9 123.752 69.6747)" fill="#FFC500"/>
<rect x="23.4192" y="75.4415" width="10" height="10" transform="rotate(-9 23.4192 75.4415)" fill="#FFC500"/>
<rect x="33.2959" y="73.8771" width="10" height="10" transform="rotate(-9 33.2959 73.8771)" fill="#FFC500"/>
<rect x="43.1729" y="72.3128" width="10" height="10" transform="rotate(-9 43.1729 72.3128)" fill="#FFC500"/>
<rect x="53.8318" y="75.6868" width="5" height="5" transform="rotate(-9 53.8318 75.6868)" fill="#FFC500"/>
<rect x="58.7701" y="74.9047" width="5" height="5" transform="rotate(-9 58.7701 74.9047)" fill="#FFC500"/>
<rect x="57.9879" y="69.9663" width="5" height="5" transform="rotate(-9 57.9879 69.9663)" fill="#FFC500"/>
<rect x="53.0497" y="70.7485" width="5" height="5" transform="rotate(-9 53.0497 70.7485)" fill="#FFC500"/>
<rect x="63.7089" y="74.1225" width="5" height="5" transform="rotate(-9 63.7089 74.1225)" fill="white"/>
<rect x="68.6472" y="73.3403" width="5" height="5" transform="rotate(-9 68.6472 73.3403)" fill="#FFC500"/>
<rect x="67.865" y="68.402" width="5" height="5" transform="rotate(-9 67.865 68.402)" fill="#FFC500"/>
<rect x="62.9266" y="69.1841" width="5" height="5" transform="rotate(-9 62.9266 69.1841)" fill="#FFC500"/>
<rect x="72.8033" y="67.6198" width="10" height="10" transform="rotate(-9 72.8033 67.6198)" fill="#FFC500"/>
<rect x="82.6804" y="66.0554" width="10" height="10" transform="rotate(-9 82.6804 66.0554)" fill="#FFC500"/>
<rect x="93.3398" y="69.4295" width="5" height="5" transform="rotate(-9 93.3398 69.4295)" fill="#FFC500"/>
<rect x="98.2782" y="68.6473" width="5" height="5" transform="rotate(-9 98.2782 68.6473)" fill="#FFC500"/>
<rect x="97.4957" y="63.709" width="5" height="5" transform="rotate(-9 97.4957 63.709)" fill="#FFC500"/>
<rect x="92.5574" y="64.4911" width="5" height="5" transform="rotate(-9 92.5574 64.4911)" fill="#FFC500"/>
<rect x="103.217" y="67.8652" width="5" height="5" transform="rotate(-9 103.217 67.8652)" fill="#FFC500"/>
<rect x="108.155" y="67.083" width="5" height="5" transform="rotate(-9 108.155 67.083)" fill="#FFC500"/>
<rect x="107.372" y="62.1447" width="5" height="5" transform="rotate(-9 107.372 62.1447)" fill="#FFC500"/>
<rect x="102.434" y="62.9268" width="5" height="5" transform="rotate(-9 102.434 62.9268)" fill="#FFC500"/>
<rect x="112.311" y="61.3625" width="10" height="10" transform="rotate(-9 112.311 61.3625)" fill="#FFC500"/>
<rect x="122.188" y="59.7982" width="10" height="10" transform="rotate(-9 122.188 59.7982)" fill="#FFC500"/>
<rect x="132.065" y="58.2335" width="10" height="10" transform="rotate(-9 132.065 58.2335)" fill="#FFC500"/>
<rect x="11.9778" y="67.1288" width="10" height="10" transform="rotate(-9 11.9778 67.1288)" fill="#FFC500"/>
<rect x="21.8549" y="65.5645" width="10" height="10" transform="rotate(-9 21.8549 65.5645)" fill="#FFC500"/>
<rect x="41.6085" y="62.4358" width="10" height="10" transform="rotate(-9 41.6085 62.4358)" fill="#FFC500"/>
<rect x="51.4854" y="60.8715" width="10" height="10" transform="rotate(-9 51.4854 60.8715)" fill="#1E1E1E"/>
<rect x="61.3623" y="59.3071" width="10" height="10" transform="rotate(-9 61.3623 59.3071)" fill="#1E1E1E"/>
<rect x="71.239" y="57.7428" width="10" height="10" transform="rotate(-9 71.239 57.7428)" fill="#1E1E1E"/>
<rect x="81.1161" y="56.1783" width="10" height="10" transform="rotate(-9 81.1161 56.1783)" fill="#1E1E1E"/>
<rect x="90.993" y="54.6141" width="10" height="10" transform="rotate(-9 90.993 54.6141)" fill="#1E1E1E"/>
<rect x="100.87" y="53.0498" width="10" height="10" transform="rotate(-9 100.87 53.0498)" fill="#1E1E1E"/>
<rect x="110.746" y="51.4855" width="10" height="10" transform="rotate(-9 110.746 51.4855)" fill="#FFC500"/>
<rect x="130.5" y="48.3565" width="10" height="10" transform="rotate(-9 130.5 48.3565)" fill="#FFC500"/>
<rect x="140.377" y="46.7922" width="10" height="10" transform="rotate(-9 140.377 46.7922)" fill="#FFC500"/>
<rect x="10.4135" y="57.2521" width="10" height="10" transform="rotate(-9 10.4135 57.2521)" fill="#FFC500"/>
<rect x="40.0442" y="52.5591" width="10" height="10" transform="rotate(-9 40.0442 52.5591)" fill="#FFC500"/>
<rect x="49.921" y="50.9948" width="10" height="10" transform="rotate(-9 49.921 50.9948)" fill="#1E1E1E"/>
<rect x="59.798" y="49.4304" width="10" height="10" transform="rotate(-9 59.798 49.4304)" fill="#1E1E1E"/>
<rect x="69.6747" y="47.8661" width="10" height="10" transform="rotate(-9 69.6747 47.8661)" fill="#1E1E1E"/>
<rect x="79.5518" y="46.3016" width="10" height="10" transform="rotate(-9 79.5518 46.3016)" fill="#1E1E1E"/>
<rect x="89.4287" y="44.7374" width="10" height="10" transform="rotate(-9 89.4287 44.7374)" fill="#1E1E1E"/>
<rect x="99.3054" y="43.1731" width="10" height="10" transform="rotate(-9 99.3054 43.1731)" fill="#1E1E1E"/>
<rect x="109.182" y="41.6086" width="10" height="10" transform="rotate(-9 109.182 41.6086)" fill="white"/>
<rect x="138.813" y="36.9155" width="10" height="10" transform="rotate(-9 138.813 36.9155)" fill="white"/>
<rect x="8.84918" y="47.3751" width="10" height="10" transform="rotate(-9 8.84918 47.3751)" fill="#FFC500"/>
<rect x="18.7262" y="45.8107" width="10" height="10" transform="rotate(-9 18.7262 45.8107)" fill="white"/>
<rect x="28.6029" y="44.2464" width="10" height="10" transform="rotate(-9 28.6029 44.2464)" fill="white"/>
<rect x="38.4799" y="42.6821" width="10" height="10" transform="rotate(-9 38.4799 42.6821)" fill="#FFC500"/>
<rect x="48.3567" y="41.1177" width="10" height="10" transform="rotate(-9 48.3567 41.1177)" fill="#1E1E1E"/>
<rect x="58.2336" y="39.5534" width="10" height="10" transform="rotate(-9 58.2336 39.5534)" fill="#1E1E1E"/>
<rect x="68.1104" y="37.9891" width="10" height="10" transform="rotate(-9 68.1104 37.9891)" fill="#1E1E1E"/>
<rect x="77.9874" y="36.4246" width="10" height="10" transform="rotate(-9 77.9874 36.4246)" fill="#1E1E1E"/>
<rect x="87.8644" y="34.8604" width="10" height="10" transform="rotate(-9 87.8644 34.8604)" fill="#1E1E1E"/>
<rect x="97.7411" y="33.2961" width="10" height="10" transform="rotate(-9 97.7411 33.2961)" fill="#1E1E1E"/>
<rect x="107.618" y="31.7318" width="10" height="10" transform="rotate(-9 107.618 31.7318)" fill="white"/>
<rect x="117.495" y="30.1671" width="10" height="10" transform="rotate(-9 117.495 30.1671)" fill="#FFC500"/>
<rect x="127.372" y="28.6028" width="10" height="10" transform="rotate(-9 127.372 28.6028)" fill="white"/>
<rect x="137.249" y="27.0385" width="10" height="10" transform="rotate(-9 137.249 27.0385)" fill="white"/>
<rect x="36.9155" y="32.8054" width="10" height="10" transform="rotate(-9 36.9155 32.8054)" fill="#FFC500"/>
<rect x="46.7924" y="31.241" width="10" height="10" transform="rotate(-9 46.7924 31.241)" fill="#1E1E1E"/>
<rect x="56.6693" y="29.6767" width="10" height="10" transform="rotate(-9 56.6693 29.6767)" fill="#1E1E1E"/>
<rect x="66.546" y="28.1124" width="10" height="10" transform="rotate(-9 66.546 28.1124)" fill="#1E1E1E"/>
<rect x="76.4231" y="26.5479" width="10" height="10" transform="rotate(-9 76.4231 26.5479)" fill="#1E1E1E"/>
<rect x="86.3" y="24.9837" width="10" height="10" transform="rotate(-9 86.3 24.9837)" fill="#1E1E1E"/>
<rect x="96.1768" y="23.4194" width="10" height="10" transform="rotate(-9 96.1768 23.4194)" fill="#1E1E1E"/>
<rect x="106.053" y="21.855" width="10" height="10" transform="rotate(-9 106.053 21.855)" fill="white"/>
<rect x="35.3512" y="22.9283" width="10" height="10" transform="rotate(-9 35.3512 22.9283)" fill="#FFC500"/>
<rect x="45.228" y="21.364" width="10" height="10" transform="rotate(-9 45.228 21.364)" fill="#FFC500"/>
<rect x="55.105" y="19.7997" width="10" height="10" transform="rotate(-9 55.105 19.7997)" fill="#FFC500"/>
<rect x="64.9817" y="18.2354" width="10" height="10" transform="rotate(-9 64.9817 18.2354)" fill="#FFC500"/>
<rect x="74.8588" y="16.6709" width="10" height="10" transform="rotate(-9 74.8588 16.6709)" fill="#FFC500"/>
<rect x="84.7357" y="15.1067" width="10" height="10" transform="rotate(-9 84.7357 15.1067)" fill="#FFC500"/>
<rect x="94.6124" y="13.5424" width="10" height="10" transform="rotate(-9 94.6124 13.5424)" fill="white"/>
<rect x="104.489" y="11.978" width="10" height="10" transform="rotate(-9 104.489 11.978)" fill="white"/>
<rect x="63.1724" y="38.7715" width="5" height="5" transform="rotate(-9 63.1724 38.7715)" fill="white"/>
<rect x="82.926" y="35.6426" width="5" height="5" transform="rotate(-9 82.926 35.6426)" fill="white"/>
<rect x="63.9545" y="43.7099" width="5" height="5" transform="rotate(-9 63.9545 43.7099)" fill="white"/>
<rect x="83.7085" y="40.5812" width="5" height="5" transform="rotate(-9 83.7085 40.5812)" fill="white"/>
<rect x="64.7367" y="48.6483" width="5" height="5" transform="rotate(-9 64.7367 48.6483)" fill="white"/>
<rect x="84.4916" y="45.5193" width="5" height="5" transform="rotate(-9 84.4916 45.5193)" fill="white"/>
<rect x="69.675" y="47.8661" width="5" height="5" transform="rotate(-9 69.675 47.8661)" fill="white"/>
<rect x="90.2124" y="49.6758" width="5" height="5" transform="rotate(-9 90.2124 49.6758)" fill="white"/>
<rect x="73.8312" y="42.1456" width="5" height="5" transform="rotate(-9 73.8312 42.1456)" fill="white"/>
<rect x="93.5852" y="39.0169" width="5" height="5" transform="rotate(-9 93.5852 39.0169)" fill="white"/>
<rect x="94.3671" y="43.9553" width="5" height="5" transform="rotate(-9 94.3671 43.9553)" fill="white"/>
<rect x="65.5188" y="53.5866" width="5" height="5" transform="rotate(-9 65.5188 53.5866)" fill="white"/>
<rect x="85.2728" y="50.4579" width="5" height="5" transform="rotate(-9 85.2728 50.4579)" fill="white"/>
<rect x="68.1106" y="37.9891" width="5" height="5" transform="rotate(-9 68.1106 37.9891)" fill="white"/>
<rect x="87.8656" y="34.8604" width="5" height="5" transform="rotate(-9 87.8656 34.8604)" fill="white"/>
</g>
<defs>
<filter id="filter0_d_149_38133" x="0" y="0" width="168.49" height="161.865" filterUnits="userSpaceOnUse" color-interpolation-filters="sRGB">
<feFlood flood-opacity="0" result="BackgroundImageFix"/>
<feColorMatrix in="SourceAlpha" type="matrix" values="0 0 0 0 0 0 0 0 0 0 0 0 0 0 0 0 0 0 127 0" result="hardAlpha"/>
<feOffset dy="10"/>
<feComposite in2="hardAlpha" operator="out"/>
<feColorMatrix type="matrix" values="0 0 0 0 0 0 0 0 0 0 0 0 0 0 0 0 0 0 0.25 0"/>
<feBlend mode="normal" in2="BackgroundImageFix" result="effect1_dropShadow_149_38133"/>
<feBlend mode="normal" in="SourceGraphic" in2="effect1_dropShadow_149_38133" result="shape"/>
</filter>
<filter id="filter1_d_149_38133" x="59.5522" y="79.0609" width="6.04058" height="7.72058" filterUnits="userSpaceOnUse" color-interpolation-filters="sRGB">
<feFlood flood-opacity="0" result="BackgroundImageFix"/>
<feColorMatrix in="SourceAlpha" type="matrix" values="0 0 0 0 0 0 0 0 0 0 0 0 0 0 0 0 0 0 127 0" result="hardAlpha"/>
<feOffset dx="0.32" dy="2"/>
<feComposite in2="hardAlpha" operator="out"/>
<feColorMatrix type="matrix" values="0 0 0 0 0.258824 0 0 0 0 0 0 0 0 0 0.552941 0 0 0 0.25 0"/>
<feBlend mode="normal" in2="BackgroundImageFix" result="effect1_dropShadow_149_38133"/>
<feBlend mode="normal" in="SourceGraphic" in2="effect1_dropShadow_149_38133" result="shape"/>
</filter>
<filter id="filter2_d_149_38133" x="69.4293" y="77.4965" width="6.04058" height="7.72058" filterUnits="userSpaceOnUse" color-interpolation-filters="sRGB">
<feFlood flood-opacity="0" result="BackgroundImageFix"/>
<feColorMatrix in="SourceAlpha" type="matrix" values="0 0 0 0 0 0 0 0 0 0 0 0 0 0 0 0 0 0 127 0" result="hardAlpha"/>
<feOffset dx="0.32" dy="2"/>
<feComposite in2="hardAlpha" operator="out"/>
<feColorMatrix type="matrix" values="0 0 0 0 0.258824 0 0 0 0 0 0 0 0 0 0.552941 0 0 0 0.25 0"/>
<feBlend mode="normal" in2="BackgroundImageFix" result="effect1_dropShadow_149_38133"/>
<feBlend mode="normal" in="SourceGraphic" in2="effect1_dropShadow_149_38133" result="shape"/>
</filter>
<filter id="filter3_d_149_38133" x="65.2732" y="83.217" width="6.04058" height="7.72058" filterUnits="userSpaceOnUse" color-interpolation-filters="sRGB">
<feFlood flood-opacity="0" result="BackgroundImageFix"/>
<feColorMatrix in="SourceAlpha" type="matrix" values="0 0 0 0 0 0 0 0 0 0 0 0 0 0 0 0 0 0 127 0" result="hardAlpha"/>
<feOffset dx="0.32" dy="2"/>
<feComposite in2="hardAlpha" operator="out"/>
<feColorMatrix type="matrix" values="0 0 0 0 0.258824 0 0 0 0 0 0 0 0 0 0.552941 0 0 0 0.25 0"/>
<feBlend mode="normal" in2="BackgroundImageFix" result="effect1_dropShadow_149_38133"/>
<feBlend mode="normal" in="SourceGraphic" in2="effect1_dropShadow_149_38133" result="shape"/>
</filter>
<filter id="filter4_d_149_38133" x="94.1217" y="73.5857" width="6.04058" height="7.72058" filterUnits="userSpaceOnUse" color-interpolation-filters="sRGB">
<feFlood flood-opacity="0" result="BackgroundImageFix"/>
<feColorMatrix in="SourceAlpha" type="matrix" values="0 0 0 0 0 0 0 0 0 0 0 0 0 0 0 0 0 0 127 0" result="hardAlpha"/>
<feOffset dx="0.32" dy="2"/>
<feComposite in2="hardAlpha" operator="out"/>
<feColorMatrix type="matrix" values="0 0 0 0 0.258824 0 0 0 0 0 0 0 0 0 0.552941 0 0 0 0.25 0"/>
<feBlend mode="normal" in2="BackgroundImageFix" result="effect1_dropShadow_149_38133"/>
<feBlend mode="normal" in="SourceGraphic" in2="effect1_dropShadow_149_38133" result="shape"/>
</filter>
<filter id="filter5_d_149_38133" x="103.998" y="72.0214" width="6.04058" height="7.72058" filterUnits="userSpaceOnUse" color-interpolation-filters="sRGB">
<feFlood flood-opacity="0" result="BackgroundImageFix"/>
<feColorMatrix in="SourceAlpha" type="matrix" values="0 0 0 0 0 0 0 0 0 0 0 0 0 0 0 0 0 0 127 0" result="hardAlpha"/>
<feOffset dx="0.32" dy="2"/>
<feComposite in2="hardAlpha" operator="out"/>
<feColorMatrix type="matrix" values="0 0 0 0 0.258824 0 0 0 0 0 0 0 0 0 0.552941 0 0 0 0.25 0"/>
<feBlend mode="normal" in2="BackgroundImageFix" result="effect1_dropShadow_149_38133"/>
<feBlend mode="normal" in="SourceGraphic" in2="effect1_dropShadow_149_38133" result="shape"/>
</filter>
</defs>
</svg>
