<svg width="150" height="140" viewBox="0 0 150 140" fill="none" xmlns="http://www.w3.org/2000/svg">
<g filter="url(#filter0_d_140_161720)">
<rect x="35" y="115" width="10" height="10" fill="#FFC500"/>
<rect x="45" y="115" width="10" height="10" fill="#FFC500"/>
<rect x="55" y="115" width="10" height="10" fill="#FFC500"/>
<rect x="65" y="115" width="10" height="10" fill="#FFC500"/>
<rect x="75" y="115" width="10" height="10" fill="#FFC500"/>
<rect x="85" y="115" width="10" height="10" fill="#FFC500"/>
<rect x="95" y="115" width="10" height="10" fill="#FFC500"/>
<rect x="105" y="115" width="10" height="10" fill="white"/>
<rect x="45" y="105" width="10" height="10" fill="#FFC500"/>
<rect x="55" y="105" width="10" height="10" fill="#FFC500"/>
<rect x="65" y="105" width="10" height="10" fill="#FFC500"/>
<rect x="75" y="105" width="10" height="10" fill="#FFC500"/>
<rect x="85" y="105" width="10" height="10" fill="#FFC500"/>
<rect x="95" y="105" width="10" height="10" fill="white"/>
<rect x="65" y="95" width="10" height="10" fill="#FFC500"/>
<rect x="75" y="95" width="10" height="10" fill="#FFC500"/>
<rect x="55" y="85" width="10" height="10" fill="#FFC500"/>
<rect x="65" y="85" width="10" height="10" fill="#FFC500"/>
<rect x="75" y="85" width="10" height="10" fill="#FFC500"/>
<rect x="85" y="85" width="10" height="10" fill="#FFC500"/>
<rect x="35" y="75" width="10" height="10" fill="#FFC500"/>
<rect x="45" y="75" width="10" height="10" fill="#FFC500"/>
<rect x="55" y="75" width="10" height="10" fill="#FFC500"/>
<rect x="65" y="75" width="10" height="10" fill="#FFC500"/>
<rect x="75" y="75" width="10" height="10" fill="#FFC500"/>
<rect x="85" y="75" width="10" height="10" fill="#FFC500"/>
<rect x="95" y="75" width="10" height="10" fill="#FFC500"/>
<rect x="105" y="75" width="10" height="10" fill="#FFC500"/>
<rect x="25" y="65" width="10" height="10" fill="#FFC500"/>
<rect x="35" y="65" width="10" height="10" fill="#FFC500"/>
<rect x="45" y="70" width="5" height="5" fill="#FFC500"/>
<rect x="50" y="70" width="5" height="5" fill="#FFC500"/>
<g filter="url(#filter1_d_140_161720)">
<rect x="50" y="65" width="5" height="5" fill="white"/>
</g>
<rect x="45" y="65" width="5" height="5" fill="#FFC500"/>
<rect x="60" y="70" width="5" height="5" fill="#FFC500"/>
<g filter="url(#filter2_d_140_161720)">
<rect x="60" y="65" width="5" height="5" fill="white"/>
</g>
<rect x="55" y="65" width="5" height="5" fill="white"/>
<g filter="url(#filter3_d_140_161720)">
<rect x="55" y="70" width="5" height="5" fill="white"/>
</g>
<rect x="65" y="65" width="10" height="10" fill="#FFC500"/>
<rect x="75" y="65" width="10" height="10" fill="#FFC500"/>
<rect x="85" y="70" width="5" height="5" fill="#FFC500"/>
<rect x="90" y="70" width="5" height="5" fill="#FFC500"/>
<rect x="90" y="65" width="5" height="5" fill="#FFC500"/>
<g filter="url(#filter4_d_140_161720)">
<path d="M85 65L90 65L90 70L85 70L85 65Z" fill="white"/>
</g>
<rect x="95" y="70" width="5" height="5" fill="#FFC500"/>
<rect x="100" y="70" width="5" height="5" fill="#FFC500"/>
<rect x="100" y="65" width="5" height="5" fill="#FFC500"/>
<g filter="url(#filter5_d_140_161720)">
<path d="M95 65L100 65L100 70L95 70L95 65Z" fill="white"/>
</g>
<rect x="105" y="65" width="10" height="10" fill="#FFC500"/>
<rect x="115" y="65" width="10" height="10" fill="#FFC500"/>
<rect x="15" y="55" width="10" height="10" fill="#FFC500"/>
<rect x="25" y="55" width="10" height="10" fill="#FFC500"/>
<rect x="35" y="55" width="10" height="10" fill="#FFC500"/>
<rect x="45" y="60" width="5" height="5" fill="#FFC500"/>
<rect x="50" y="60" width="5" height="5" fill="#FFC500"/>
<rect x="50" y="55" width="5" height="5" fill="#FFC500"/>
<rect x="45" y="55" width="5" height="5" fill="#FFC500"/>
<rect x="55" y="60" width="5" height="5" fill="white"/>
<rect x="60" y="60" width="5" height="5" fill="#FFC500"/>
<rect x="60" y="55" width="5" height="5" fill="#FFC500"/>
<rect x="55" y="55" width="5" height="5" fill="#FFC500"/>
<rect x="65" y="55" width="10" height="10" fill="#FFC500"/>
<rect x="75" y="55" width="10" height="10" fill="#FFC500"/>
<rect x="85" y="60" width="5" height="5" fill="#FFC500"/>
<rect x="90" y="60" width="5" height="5" fill="#FFC500"/>
<rect x="90" y="55" width="5" height="5" fill="#FFC500"/>
<rect x="85" y="55" width="5" height="5" fill="#FFC500"/>
<rect x="95" y="60" width="5" height="5" fill="#FFC500"/>
<rect x="100" y="60" width="5" height="5" fill="#FFC500"/>
<rect x="100" y="55" width="5" height="5" fill="#FFC500"/>
<rect x="95" y="55" width="5" height="5" fill="#FFC500"/>
<rect x="105" y="55" width="10" height="10" fill="#FFC500"/>
<rect x="115" y="55" width="10" height="10" fill="#FFC500"/>
<rect x="125" y="55" width="10" height="10" fill="#FFC500"/>
<rect x="5" y="45" width="10" height="10" fill="#FFC500"/>
<rect x="15" y="45" width="10" height="10" fill="#FFC500"/>
<rect x="35" y="45" width="10" height="10" fill="#FFC500"/>
<rect x="45" y="45" width="10" height="10" fill="#1E1E1E"/>
<rect x="55" y="45" width="10" height="10" fill="#1E1E1E"/>
<rect x="65" y="45" width="10" height="10" fill="#1E1E1E"/>
<rect x="75" y="45" width="10" height="10" fill="#1E1E1E"/>
<rect x="85" y="45" width="10" height="10" fill="#1E1E1E"/>
<rect x="95" y="45" width="10" height="10" fill="#1E1E1E"/>
<rect x="105" y="45" width="10" height="10" fill="#FFC500"/>
<rect x="125" y="45" width="10" height="10" fill="#FFC500"/>
<rect x="135" y="45" width="10" height="10" fill="#FFC500"/>
<rect x="5" y="35" width="10" height="10" fill="#FFC500"/>
<rect x="35" y="35" width="10" height="10" fill="#FFC500"/>
<rect x="45" y="35" width="10" height="10" fill="#1E1E1E"/>
<rect x="55" y="35" width="10" height="10" fill="#1E1E1E"/>
<rect x="65" y="35" width="10" height="10" fill="#1E1E1E"/>
<rect x="75" y="35" width="10" height="10" fill="#1E1E1E"/>
<rect x="85" y="35" width="10" height="10" fill="#1E1E1E"/>
<rect x="95" y="35" width="10" height="10" fill="#1E1E1E"/>
<rect x="105" y="35" width="10" height="10" fill="white"/>
<rect x="135" y="35" width="10" height="10" fill="white"/>
<rect x="5" y="25" width="10" height="10" fill="#FFC500"/>
<rect x="15" y="25" width="10" height="10" fill="white"/>
<rect x="25" y="25" width="10" height="10" fill="white"/>
<rect x="35" y="25" width="10" height="10" fill="#FFC500"/>
<rect x="45" y="25" width="10" height="10" fill="#1E1E1E"/>
<rect x="55" y="25" width="10" height="10" fill="#1E1E1E"/>
<rect x="65" y="25" width="10" height="10" fill="#1E1E1E"/>
<rect x="75" y="25" width="10" height="10" fill="#1E1E1E"/>
<rect x="85" y="25" width="10" height="10" fill="#1E1E1E"/>
<rect x="95" y="25" width="10" height="10" fill="#1E1E1E"/>
<rect x="105" y="25" width="10" height="10" fill="white"/>
<rect x="115" y="25" width="10" height="10" fill="#FFC500"/>
<rect x="125" y="25" width="10" height="10" fill="white"/>
<rect x="135" y="25" width="10" height="10" fill="white"/>
<rect x="35" y="15" width="10" height="10" fill="#FFC500"/>
<rect x="45" y="15" width="10" height="10" fill="#1E1E1E"/>
<rect x="55" y="15" width="10" height="10" fill="#1E1E1E"/>
<rect x="65" y="15" width="10" height="10" fill="#1E1E1E"/>
<rect x="75" y="15" width="10" height="10" fill="#1E1E1E"/>
<rect x="85" y="15" width="10" height="10" fill="#1E1E1E"/>
<rect x="95" y="15" width="10" height="10" fill="#1E1E1E"/>
<rect x="105" y="15" width="10" height="10" fill="white"/>
<rect x="35" y="5" width="10" height="10" fill="#FFC500"/>
<rect x="45" y="5" width="10" height="10" fill="#FFC500"/>
<rect x="55" y="5" width="10" height="10" fill="#FFC500"/>
<rect x="65" y="5" width="10" height="10" fill="#FFC500"/>
<rect x="75" y="5" width="10" height="10" fill="#FFC500"/>
<rect x="85" y="5" width="10" height="10" fill="#FFC500"/>
<rect x="95" y="5" width="10" height="10" fill="white"/>
<rect x="105" y="5" width="10" height="10" fill="white"/>
<rect x="60" y="25" width="5" height="5" fill="white"/>
<rect x="80" y="25" width="5" height="5" fill="white"/>
<rect x="60" y="30" width="5" height="5" fill="white"/>
<rect x="80" y="30" width="5" height="5" fill="white"/>
<rect x="60" y="35" width="5" height="5" fill="white"/>
<rect x="80.0012" y="35" width="5" height="5" fill="white"/>
<rect x="65" y="35" width="5" height="5" fill="white"/>
<rect x="85.0012" y="40" width="5" height="5" fill="white"/>
<rect x="70" y="30" width="5" height="5" fill="white"/>
<rect x="90" y="30" width="5" height="5" fill="white"/>
<rect x="90" y="35" width="5" height="5" fill="white"/>
<rect x="60" y="40" width="5" height="5" fill="white"/>
<rect x="80" y="40" width="5" height="5" fill="white"/>
<rect x="65" y="25" width="5" height="5" fill="white"/>
<rect x="85.0012" y="25" width="5" height="5" fill="white"/>
</g>
<defs>
<filter id="filter0_d_140_161720" x="0" y="0" width="150" height="140" filterUnits="userSpaceOnUse" color-interpolation-filters="sRGB">
<feFlood flood-opacity="0" result="BackgroundImageFix"/>
<feColorMatrix in="SourceAlpha" type="matrix" values="0 0 0 0 0 0 0 0 0 0 0 0 0 0 0 0 0 0 127 0" result="hardAlpha"/>
<feOffset dy="10"/>
<feComposite in2="hardAlpha" operator="out"/>
<feColorMatrix type="matrix" values="0 0 0 0 0 0 0 0 0 0 0 0 0 0 0 0 0 0 0.25 0"/>
<feBlend mode="normal" in2="BackgroundImageFix" result="effect1_dropShadow_140_161720"/>
<feBlend mode="normal" in="SourceGraphic" in2="effect1_dropShadow_140_161720" result="shape"/>
</filter>
<filter id="filter1_d_140_161720" x="50" y="65" width="5" height="7" filterUnits="userSpaceOnUse" color-interpolation-filters="sRGB">
<feFlood flood-opacity="0" result="BackgroundImageFix"/>
<feColorMatrix in="SourceAlpha" type="matrix" values="0 0 0 0 0 0 0 0 0 0 0 0 0 0 0 0 0 0 127 0" result="hardAlpha"/>
<feOffset dy="2"/>
<feComposite in2="hardAlpha" operator="out"/>
<feColorMatrix type="matrix" values="0 0 0 0 0.258824 0 0 0 0 0 0 0 0 0 0.552941 0 0 0 0.25 0"/>
<feBlend mode="normal" in2="BackgroundImageFix" result="effect1_dropShadow_140_161720"/>
<feBlend mode="normal" in="SourceGraphic" in2="effect1_dropShadow_140_161720" result="shape"/>
</filter>
<filter id="filter2_d_140_161720" x="60" y="65" width="5" height="7" filterUnits="userSpaceOnUse" color-interpolation-filters="sRGB">
<feFlood flood-opacity="0" result="BackgroundImageFix"/>
<feColorMatrix in="SourceAlpha" type="matrix" values="0 0 0 0 0 0 0 0 0 0 0 0 0 0 0 0 0 0 127 0" result="hardAlpha"/>
<feOffset dy="2"/>
<feComposite in2="hardAlpha" operator="out"/>
<feColorMatrix type="matrix" values="0 0 0 0 0.258824 0 0 0 0 0 0 0 0 0 0.552941 0 0 0 0.25 0"/>
<feBlend mode="normal" in2="BackgroundImageFix" result="effect1_dropShadow_140_161720"/>
<feBlend mode="normal" in="SourceGraphic" in2="effect1_dropShadow_140_161720" result="shape"/>
</filter>
<filter id="filter3_d_140_161720" x="55" y="70" width="5" height="7" filterUnits="userSpaceOnUse" color-interpolation-filters="sRGB">
<feFlood flood-opacity="0" result="BackgroundImageFix"/>
<feColorMatrix in="SourceAlpha" type="matrix" values="0 0 0 0 0 0 0 0 0 0 0 0 0 0 0 0 0 0 127 0" result="hardAlpha"/>
<feOffset dy="2"/>
<feComposite in2="hardAlpha" operator="out"/>
<feColorMatrix type="matrix" values="0 0 0 0 0.258824 0 0 0 0 0 0 0 0 0 0.552941 0 0 0 0.25 0"/>
<feBlend mode="normal" in2="BackgroundImageFix" result="effect1_dropShadow_140_161720"/>
<feBlend mode="normal" in="SourceGraphic" in2="effect1_dropShadow_140_161720" result="shape"/>
</filter>
<filter id="filter4_d_140_161720" x="85" y="65" width="5" height="7" filterUnits="userSpaceOnUse" color-interpolation-filters="sRGB">
<feFlood flood-opacity="0" result="BackgroundImageFix"/>
<feColorMatrix in="SourceAlpha" type="matrix" values="0 0 0 0 0 0 0 0 0 0 0 0 0 0 0 0 0 0 127 0" result="hardAlpha"/>
<feOffset dy="2"/>
<feComposite in2="hardAlpha" operator="out"/>
<feColorMatrix type="matrix" values="0 0 0 0 0.258824 0 0 0 0 0 0 0 0 0 0.552941 0 0 0 0.25 0"/>
<feBlend mode="normal" in2="BackgroundImageFix" result="effect1_dropShadow_140_161720"/>
<feBlend mode="normal" in="SourceGraphic" in2="effect1_dropShadow_140_161720" result="shape"/>
</filter>
<filter id="filter5_d_140_161720" x="95" y="65" width="5" height="7" filterUnits="userSpaceOnUse" color-interpolation-filters="sRGB">
<feFlood flood-opacity="0" result="BackgroundImageFix"/>
<feColorMatrix in="SourceAlpha" type="matrix" values="0 0 0 0 0 0 0 0 0 0 0 0 0 0 0 0 0 0 127 0" result="hardAlpha"/>
<feOffset dy="2"/>
<feComposite in2="hardAlpha" operator="out"/>
<feColorMatrix type="matrix" values="0 0 0 0 0.258824 0 0 0 0 0 0 0 0 0 0.552941 0 0 0 0.25 0"/>
<feBlend mode="normal" in2="BackgroundImageFix" result="effect1_dropShadow_140_161720"/>
<feBlend mode="normal" in="SourceGraphic" in2="effect1_dropShadow_140_161720" result="shape"/>
</filter>
</defs>
</svg>
