<svg width="150" height="130" viewBox="0 0 150 130" fill="none" xmlns="http://www.w3.org/2000/svg">
<rect x="32.5" y="2.5" width="15" height="15" fill="white" stroke="black" stroke-width="5"/>
<rect x="42.5" y="2.5" width="15" height="15" fill="white" stroke="black" stroke-width="5"/>
<rect x="52.5" y="2.5" width="15" height="15" fill="white" stroke="black" stroke-width="5"/>
<rect x="62.5" y="2.5" width="15" height="15" fill="white" stroke="black" stroke-width="5"/>
<rect x="72.5" y="2.5" width="15" height="15" fill="white" stroke="black" stroke-width="5"/>
<rect x="82.5" y="2.5" width="15" height="15" fill="white" stroke="black" stroke-width="5"/>
<rect x="92.5" y="2.5" width="15" height="15" fill="white" stroke="black" stroke-width="5"/>
<rect x="102.5" y="2.5" width="15" height="15" fill="white" stroke="black" stroke-width="5"/>
<rect x="32.5" y="12.5" width="15" height="15" fill="white" stroke="black" stroke-width="5"/>
<rect x="42.5" y="12.5" width="15" height="15" fill="black" stroke="black" stroke-width="5"/>
<rect x="52.5" y="12.5" width="15" height="15" fill="black" stroke="black" stroke-width="5"/>
<rect x="62.5" y="12.5" width="15" height="15" fill="black" stroke="black" stroke-width="5"/>
<rect x="72.5" y="12.5" width="15" height="15" fill="black" stroke="black" stroke-width="5"/>
<rect x="82.5" y="12.5" width="15" height="15" fill="black" stroke="black" stroke-width="5"/>
<rect x="92.5" y="12.5" width="15" height="15" fill="black" stroke="black" stroke-width="5"/>
<rect x="102.5" y="12.5" width="15" height="15" fill="white" stroke="black" stroke-width="5"/>
<rect x="2.5" y="22.5" width="15" height="15" fill="white" stroke="black" stroke-width="5"/>
<rect x="12.5" y="22.5" width="15" height="15" fill="white" stroke="black" stroke-width="5"/>
<rect x="22.5" y="22.5" width="15" height="15" fill="white" stroke="black" stroke-width="5"/>
<rect x="32.5" y="22.5" width="15" height="15" fill="white" stroke="black" stroke-width="5"/>
<rect x="42.5" y="22.5" width="15" height="15" fill="black" stroke="black" stroke-width="5"/>
<rect x="52.5" y="22.5" width="15" height="15" fill="black" stroke="black" stroke-width="5"/>
<rect x="62.5" y="22.5" width="15" height="15" fill="black" stroke="black" stroke-width="5"/>
<rect x="72.5" y="22.5" width="15" height="15" fill="black" stroke="black" stroke-width="5"/>
<rect x="82.5" y="22.5" width="15" height="15" fill="black" stroke="black" stroke-width="5"/>
<rect x="92.5" y="22.5" width="15" height="15" fill="black" stroke="black" stroke-width="5"/>
<rect x="102.5" y="22.5" width="15" height="15" fill="white" stroke="black" stroke-width="5"/>
<rect x="112.5" y="22.5" width="15" height="15" fill="white" stroke="black" stroke-width="5"/>
<rect x="122.5" y="22.5" width="15" height="15" fill="white" stroke="black" stroke-width="5"/>
<rect x="132.5" y="22.5" width="15" height="15" fill="white" stroke="black" stroke-width="5"/>
<rect x="2.5" y="32.5" width="15" height="15" fill="white" stroke="black" stroke-width="5"/>
<rect x="32.5" y="32.5" width="15" height="15" fill="white" stroke="black" stroke-width="5"/>
<rect x="42.5" y="32.5" width="15" height="15" fill="black" stroke="black" stroke-width="5"/>
<rect x="52.5" y="32.5" width="15" height="15" fill="black" stroke="black" stroke-width="5"/>
<rect x="62.5" y="32.5" width="15" height="15" fill="black" stroke="black" stroke-width="5"/>
<rect x="72.5" y="32.5" width="15" height="15" fill="black" stroke="black" stroke-width="5"/>
<rect x="82.5" y="32.5" width="15" height="15" fill="black" stroke="black" stroke-width="5"/>
<rect x="92.5" y="32.5" width="15" height="15" fill="black" stroke="black" stroke-width="5"/>
<rect x="102.5" y="32.5" width="15" height="15" fill="white" stroke="black" stroke-width="5"/>
<rect x="132.5" y="32.5" width="15" height="15" fill="white" stroke="black" stroke-width="5"/>
<rect x="2.5" y="42.5" width="15" height="15" fill="white" stroke="black" stroke-width="5"/>
<rect x="12.5" y="42.5" width="15" height="15" fill="white" stroke="black" stroke-width="5"/>
<rect x="32.5" y="42.5" width="15" height="15" fill="white" stroke="black" stroke-width="5"/>
<rect x="42.5" y="42.5" width="15" height="15" fill="black" stroke="black" stroke-width="5"/>
<rect x="52.5" y="42.5" width="15" height="15" fill="black" stroke="black" stroke-width="5"/>
<rect x="62.5" y="42.5" width="15" height="15" fill="black" stroke="black" stroke-width="5"/>
<rect x="72.5" y="42.5" width="15" height="15" fill="black" stroke="black" stroke-width="5"/>
<rect x="82.5" y="42.5" width="15" height="15" fill="black" stroke="black" stroke-width="5"/>
<rect x="92.5" y="42.5" width="15" height="15" fill="black" stroke="black" stroke-width="5"/>
<rect x="102.5" y="42.5" width="15" height="15" fill="white" stroke="black" stroke-width="5"/>
<rect x="122.5" y="42.5" width="15" height="15" fill="white" stroke="black" stroke-width="5"/>
<rect x="132.5" y="42.5" width="15" height="15" fill="white" stroke="black" stroke-width="5"/>
<rect x="12.5" y="52.5" width="15" height="15" fill="white" stroke="black" stroke-width="5"/>
<rect x="22.5" y="52.5" width="15" height="15" fill="white" stroke="black" stroke-width="5"/>
<rect x="32.5" y="52.5" width="15" height="15" fill="white" stroke="black" stroke-width="5"/>
<rect x="42.5" y="52.5" width="15" height="15" fill="white" stroke="black" stroke-width="5"/>
<rect x="52.5" y="52.5" width="15" height="15" fill="white" stroke="black" stroke-width="5"/>
<rect x="62.5" y="52.5" width="15" height="15" fill="white" stroke="black" stroke-width="5"/>
<rect x="72.5" y="52.5" width="15" height="15" fill="white" stroke="black" stroke-width="5"/>
<rect x="82.5" y="52.5" width="15" height="15" fill="white" stroke="black" stroke-width="5"/>
<rect x="92.5" y="52.5" width="15" height="15" fill="white" stroke="black" stroke-width="5"/>
<rect x="102.5" y="52.5" width="15" height="15" fill="white" stroke="black" stroke-width="5"/>
<rect x="112.5" y="52.5" width="15" height="15" fill="white" stroke="black" stroke-width="5"/>
<rect x="122.5" y="52.5" width="15" height="15" fill="white" stroke="black" stroke-width="5"/>
<rect x="22.5" y="62.5" width="15" height="15" fill="white" stroke="black" stroke-width="5"/>
<rect x="32.5" y="62.5" width="15" height="15" fill="white" stroke="black" stroke-width="5"/>
<rect x="42.5" y="62.5" width="15" height="15" fill="white" stroke="black" stroke-width="5"/>
<rect x="52.5" y="62.5" width="15" height="15" fill="white" stroke="black" stroke-width="5"/>
<rect x="62.5" y="62.5" width="15" height="15" fill="white" stroke="black" stroke-width="5"/>
<rect x="72.5" y="62.5" width="15" height="15" fill="white" stroke="black" stroke-width="5"/>
<rect x="82.5" y="62.5" width="15" height="15" fill="white" stroke="black" stroke-width="5"/>
<rect x="92.5" y="62.5" width="15" height="15" fill="white" stroke="black" stroke-width="5"/>
<rect x="102.5" y="62.5" width="15" height="15" fill="white" stroke="black" stroke-width="5"/>
<rect x="112.5" y="62.5" width="15" height="15" fill="white" stroke="black" stroke-width="5"/>
<rect x="32.5" y="72.5" width="15" height="15" fill="white" stroke="black" stroke-width="5"/>
<rect x="42.5" y="72.5" width="15" height="15" fill="white" stroke="black" stroke-width="5"/>
<rect x="52.5" y="72.5" width="15" height="15" fill="white" stroke="black" stroke-width="5"/>
<rect x="62.5" y="72.5" width="15" height="15" fill="white" stroke="black" stroke-width="5"/>
<rect x="72.5" y="72.5" width="15" height="15" fill="white" stroke="black" stroke-width="5"/>
<rect x="82.5" y="72.5" width="15" height="15" fill="white" stroke="black" stroke-width="5"/>
<rect x="92.5" y="72.5" width="15" height="15" fill="white" stroke="black" stroke-width="5"/>
<rect x="102.5" y="72.5" width="15" height="15" fill="white" stroke="black" stroke-width="5"/>
<rect x="52.5" y="82.5" width="15" height="15" fill="white" stroke="black" stroke-width="5"/>
<rect x="62.5" y="82.5" width="15" height="15" fill="white" stroke="black" stroke-width="5"/>
<rect x="72.5" y="82.5" width="15" height="15" fill="white" stroke="black" stroke-width="5"/>
<rect x="82.5" y="82.5" width="15" height="15" fill="white" stroke="black" stroke-width="5"/>
<rect x="62.5" y="92.5" width="15" height="15" fill="white" stroke="black" stroke-width="5"/>
<rect x="72.5" y="92.5" width="15" height="15" fill="white" stroke="black" stroke-width="5"/>
<rect x="42.5" y="102.5" width="15" height="15" fill="white" stroke="black" stroke-width="5"/>
<rect x="52.5" y="102.5" width="15" height="15" fill="white" stroke="black" stroke-width="5"/>
<rect x="62.5" y="102.5" width="15" height="15" fill="white" stroke="black" stroke-width="5"/>
<rect x="72.5" y="102.5" width="15" height="15" fill="white" stroke="black" stroke-width="5"/>
<rect x="82.5" y="102.5" width="15" height="15" fill="white" stroke="black" stroke-width="5"/>
<rect x="92.5" y="102.5" width="15" height="15" fill="white" stroke="black" stroke-width="5"/>
<rect x="32.5" y="112.5" width="15" height="15" fill="white" stroke="black" stroke-width="5"/>
<rect x="42.5" y="112.5" width="15" height="15" fill="white" stroke="black" stroke-width="5"/>
<rect x="52.5" y="112.5" width="15" height="15" fill="white" stroke="black" stroke-width="5"/>
<rect x="62.5" y="112.5" width="15" height="15" fill="white" stroke="black" stroke-width="5"/>
<rect x="72.5" y="112.5" width="15" height="15" fill="white" stroke="black" stroke-width="5"/>
<rect x="82.5" y="112.5" width="15" height="15" fill="white" stroke="black" stroke-width="5"/>
<rect x="92.5" y="112.5" width="15" height="15" fill="white" stroke="black" stroke-width="5"/>
<rect x="102.5" y="112.5" width="15" height="15" fill="white" stroke="black" stroke-width="5"/>
<rect x="35" y="115" width="10" height="10" fill="white"/>
<rect x="45" y="115" width="10" height="10" fill="white"/>
<rect x="55" y="115" width="10" height="10" fill="white"/>
<rect x="65" y="115" width="10" height="10" fill="white"/>
<rect x="75" y="115" width="10" height="10" fill="white"/>
<rect x="85" y="115" width="10" height="10" fill="white"/>
<rect x="95" y="115" width="10" height="10" fill="white"/>
<rect x="105" y="115" width="10" height="10" fill="white"/>
<rect x="45" y="105" width="10" height="10" fill="white"/>
<rect x="55" y="105" width="10" height="10" fill="white"/>
<rect x="65" y="105" width="10" height="10" fill="white"/>
<rect x="75" y="105" width="10" height="10" fill="white"/>
<rect x="85" y="105" width="10" height="10" fill="white"/>
<rect x="95" y="105" width="10" height="10" fill="white"/>
<rect x="65" y="95" width="10" height="10" fill="white"/>
<rect x="75" y="95" width="10" height="10" fill="white"/>
<rect x="55" y="85" width="10" height="10" fill="white"/>
<rect x="65" y="85" width="10" height="10" fill="white"/>
<rect x="75" y="85" width="10" height="10" fill="white"/>
<rect x="85" y="85" width="10" height="10" fill="white"/>
<rect x="35" y="75" width="10" height="10" fill="white"/>
<rect x="45" y="75" width="10" height="10" fill="white"/>
<rect x="55" y="75" width="10" height="10" fill="white"/>
<rect x="65" y="75" width="10" height="10" fill="white"/>
<rect x="75" y="75" width="10" height="10" fill="white"/>
<rect x="85" y="75" width="10" height="10" fill="white"/>
<rect x="95" y="75" width="10" height="10" fill="white"/>
<rect x="105" y="75" width="10" height="10" fill="white"/>
<rect x="25" y="65" width="10" height="10" fill="white"/>
<rect x="35" y="65" width="10" height="10" fill="white"/>
<rect x="45" y="70" width="5" height="5" fill="white"/>
<rect x="50" y="70" width="5" height="5" fill="white"/>
<rect x="50" y="65" width="5" height="5" fill="white"/>
<rect x="45" y="65" width="5" height="5" fill="white"/>
<rect x="60" y="70" width="5" height="5" fill="white"/>
<rect x="60" y="65" width="5" height="5" fill="white"/>
<rect x="55" y="65" width="5" height="5" fill="white"/>
<rect x="55" y="70" width="5" height="5" fill="white"/>
<rect x="65" y="65" width="10" height="10" fill="white"/>
<rect x="75" y="65" width="10" height="10" fill="white"/>
<rect x="85" y="70" width="5" height="5" fill="white"/>
<rect x="90" y="70" width="5" height="5" fill="white"/>
<rect x="90" y="65" width="5" height="5" fill="white"/>
<rect x="85" y="65" width="5" height="5" fill="white"/>
<rect x="95" y="70" width="5" height="5" fill="white"/>
<rect x="100" y="70" width="5" height="5" fill="white"/>
<rect x="100" y="65" width="5" height="5" fill="white"/>
<rect x="95" y="65" width="5" height="5" fill="white"/>
<rect x="105" y="65" width="10" height="10" fill="white"/>
<rect x="115" y="65" width="10" height="10" fill="white"/>
<rect x="15" y="55" width="10" height="10" fill="white"/>
<rect x="25" y="55" width="10" height="10" fill="white"/>
<rect x="35" y="55" width="10" height="10" fill="white"/>
<rect x="45" y="60" width="5" height="5" fill="white"/>
<rect x="50" y="60" width="5" height="5" fill="white"/>
<rect x="50" y="55" width="5" height="5" fill="white"/>
<rect x="45" y="55" width="5" height="5" fill="white"/>
<rect x="55" y="60" width="5" height="5" fill="white"/>
<rect x="60" y="60" width="5" height="5" fill="white"/>
<rect x="60" y="55" width="5" height="5" fill="white"/>
<rect x="55" y="55" width="5" height="5" fill="white"/>
<rect x="65" y="55" width="10" height="10" fill="white"/>
<rect x="75" y="55" width="10" height="10" fill="white"/>
<rect x="85" y="60" width="5" height="5" fill="white"/>
<rect x="90" y="60" width="5" height="5" fill="white"/>
<rect x="90" y="55" width="5" height="5" fill="white"/>
<rect x="85" y="55" width="5" height="5" fill="white"/>
<rect x="95" y="60" width="5" height="5" fill="white"/>
<rect x="100" y="60" width="5" height="5" fill="white"/>
<rect x="100" y="55" width="5" height="5" fill="white"/>
<rect x="95" y="55" width="5" height="5" fill="white"/>
<rect x="105" y="55" width="10" height="10" fill="white"/>
<rect x="115" y="55" width="10" height="10" fill="white"/>
<rect x="125" y="55" width="10" height="10" fill="white"/>
<rect x="5" y="45" width="10" height="10" fill="white"/>
<rect x="15" y="45" width="10" height="10" fill="white"/>
<rect x="35" y="45" width="10" height="10" fill="white"/>
<rect x="45" y="45" width="10" height="10" fill="black"/>
<rect x="55" y="45" width="10" height="10" fill="black"/>
<rect x="65" y="45" width="10" height="10" fill="black"/>
<rect x="75" y="45" width="10" height="10" fill="black"/>
<rect x="85" y="45" width="10" height="10" fill="black"/>
<rect x="95" y="45" width="10" height="10" fill="black"/>
<rect x="105" y="45" width="10" height="10" fill="white"/>
<rect x="125" y="45" width="10" height="10" fill="white"/>
<rect x="135" y="45" width="10" height="10" fill="white"/>
<rect x="5" y="35" width="10" height="10" fill="white"/>
<rect x="35" y="35" width="10" height="10" fill="white"/>
<rect x="45" y="35" width="10" height="10" fill="black"/>
<rect x="55" y="35" width="10" height="10" fill="black"/>
<rect x="65" y="35" width="10" height="10" fill="black"/>
<rect x="75" y="35" width="10" height="10" fill="black"/>
<rect x="85" y="35" width="10" height="10" fill="black"/>
<rect x="95" y="35" width="10" height="10" fill="black"/>
<rect x="105" y="35" width="10" height="10" fill="white"/>
<rect x="135" y="35" width="10" height="10" fill="white"/>
<rect x="5" y="25" width="10" height="10" fill="white"/>
<rect x="15" y="25" width="10" height="10" fill="white"/>
<rect x="25" y="25" width="10" height="10" fill="white"/>
<rect x="35" y="25" width="10" height="10" fill="white"/>
<rect x="45" y="25" width="10" height="10" fill="black"/>
<rect x="55" y="25" width="10" height="10" fill="black"/>
<rect x="65" y="25" width="10" height="10" fill="black"/>
<rect x="75" y="25" width="10" height="10" fill="black"/>
<rect x="85" y="25" width="10" height="10" fill="black"/>
<rect x="95" y="25" width="10" height="10" fill="black"/>
<rect x="105" y="25" width="10" height="10" fill="white"/>
<rect x="115" y="25" width="10" height="10" fill="white"/>
<rect x="125" y="25" width="10" height="10" fill="white"/>
<rect x="135" y="25" width="10" height="10" fill="white"/>
<rect x="35" y="15" width="10" height="10" fill="white"/>
<rect x="45" y="15" width="10" height="10" fill="black"/>
<rect x="55" y="15" width="10" height="10" fill="black"/>
<rect x="65" y="15" width="10" height="10" fill="black"/>
<rect x="75" y="15" width="10" height="10" fill="black"/>
<rect x="85" y="15" width="10" height="10" fill="black"/>
<rect x="95" y="15" width="10" height="10" fill="black"/>
<rect x="105" y="15" width="10" height="10" fill="white"/>
<rect x="35" y="5" width="10" height="10" fill="white"/>
<rect x="45" y="5" width="10" height="10" fill="white"/>
<rect x="55" y="5" width="10" height="10" fill="white"/>
<rect x="65" y="5" width="10" height="10" fill="white"/>
<rect x="75" y="5" width="10" height="10" fill="white"/>
<rect x="85" y="5" width="10" height="10" fill="white"/>
<rect x="95" y="5" width="10" height="10" fill="white"/>
<rect x="105" y="5" width="10" height="10" fill="white"/>
<rect x="60" y="25" width="5" height="5" fill="white"/>
<rect x="80" y="25" width="5" height="5" fill="white"/>
<rect x="60" y="30" width="5" height="5" fill="white"/>
<rect x="80" y="30" width="5" height="5" fill="white"/>
<rect x="60" y="35" width="5" height="5" fill="white"/>
<rect x="80.0012" y="35" width="5" height="5" fill="white"/>
<rect x="65" y="35" width="5" height="5" fill="white"/>
<rect x="85.0012" y="40" width="5" height="5" fill="white"/>
<rect x="70" y="30" width="5" height="5" fill="white"/>
<rect x="90" y="30" width="5" height="5" fill="white"/>
<rect x="90" y="35" width="5" height="5" fill="white"/>
<rect x="60" y="40" width="5" height="5" fill="white"/>
<rect x="80" y="40" width="5" height="5" fill="white"/>
<rect x="65" y="25" width="5" height="5" fill="white"/>
<rect x="85.0012" y="25" width="5" height="5" fill="white"/>
</svg>
